<svg width="40" height="50" viewBox="0 0 40 50" fill="none" xmlns="http://www.w3.org/2000/svg">
<path d="M11.8026 11C14.3538 7.35902 14.8044 7 15.9044 0.999999C15.9896 0.53548 16.8304 0 17.3026 0C18.3044 -7.81365e-07 19.5288 1.07502 20.8026 2C23.5569 4 25.9347 6.90188 27.4515 11C28.0826 12.705 28.3324 13.7187 28.5515 15.5234C28.7764 17.3752 28.3929 20.4629 28.5515 20.3C30.3044 18.5 31.3044 15.5 32.7044 15.6C33.8044 15.6786 34.7058 17.2459 35.7015 18.5C37.9522 21.3347 39.6015 25.2577 39.6015 30C39.6015 35.6519 37.7814 40.9726 32.8026 45.1C29.3044 48 25.2281 50 19.8026 50C15.3044 50 10.8026 48.6291 6.70154 45C2.74642 41.5 -0.0513681 36.4156 0.000754204 30C0.0391818 25.2701 1.20606 22.4537 3.80263 18.5C6.15346 14.9205 9.3452 14.5072 11.8026 11Z" fill="#3B4262"/>
</svg>
