<svg width="42" height="42" viewBox="0 0 42 42" fill="none" xmlns="http://www.w3.org/2000/svg">
<path fill-rule="evenodd" clip-rule="evenodd" d="M18 6C17.6107 5.99981 17.2298 6.11326 16.904 6.32642C16.5782 6.53958 16.3217 6.84319 16.166 7.2C16.0084 7.56114 15.7812 7.8877 15.4974 8.16104C15.2137 8.43438 14.8788 8.64914 14.512 8.79307C14.1452 8.93701 13.7537 9.00728 13.3597 8.99989C12.9658 8.9925 12.5771 8.90759 12.216 8.75C11.8549 8.59242 11.5283 8.36524 11.255 8.08145C10.9816 7.79766 10.7669 7.46281 10.6229 7.09602C10.479 6.72923 10.4087 6.33768 10.4161 5.94373C10.4235 5.54978 10.5084 5.16114 10.666 4.8C11.2429 3.47817 12.1664 2.33687 13.3388 1.49689C14.5112 0.6569 15.8888 0.14947 17.326 0.0282912C18.7631 -0.0928872 20.2063 0.176694 21.5027 0.808507C22.7992 1.44032 23.9008 2.41087 24.6909 3.61744C25.481 4.82401 25.9302 6.22173 25.991 7.66268C26.0518 9.10364 25.722 10.5342 25.0363 11.8031C24.3507 13.0719 23.3348 14.1318 22.0962 14.8706C20.8576 15.6094 19.4422 15.9997 18 16H7C6.20435 16 5.44129 15.6839 4.87868 15.1213C4.31607 14.5587 4 13.7957 4 13C4 12.2044 4.31607 11.4413 4.87868 10.8787C5.44129 10.3161 6.20435 10 7 10H18C18.5304 10 19.0391 9.78929 19.4142 9.41422C19.7893 9.03914 20 8.53044 20 8C20 7.46957 19.7893 6.96086 19.4142 6.58579C19.0391 6.21072 18.5304 6 18 6ZM34 14C33.6107 13.9998 33.2298 14.1133 32.904 14.3264C32.5782 14.5396 32.3217 14.8432 32.166 15.2C31.8477 15.9293 31.2528 16.5024 30.512 16.7931C29.7712 17.0838 28.9453 17.0683 28.216 16.75C27.4867 16.4317 26.9136 15.8368 26.6229 15.096C26.3322 14.3553 26.3477 13.5293 26.666 12.8C27.2429 11.4782 28.1664 10.3369 29.3388 9.49689C30.5112 8.6569 31.8888 8.14947 33.326 8.02829C34.7631 7.90711 36.2063 8.17669 37.5027 8.80851C38.7992 9.44032 39.9008 10.4109 40.6909 11.6174C41.481 12.824 41.9302 14.2217 41.991 15.6627C42.0518 17.1036 41.722 18.5342 41.0363 19.8031C40.3507 21.0719 39.3348 22.1318 38.0962 22.8706C36.8576 23.6094 35.4422 23.9997 34 24H3C2.20435 24 1.44129 23.6839 0.87868 23.1213C0.316071 22.5587 0 21.7957 0 21C0 20.2044 0.316071 19.4413 0.87868 18.8787C1.44129 18.3161 2.20435 18 3 18H34C34.5304 18 35.0391 17.7893 35.4142 17.4142C35.7893 17.0391 36 16.5304 36 16C36 15.4696 35.7893 14.9609 35.4142 14.5858C35.0391 14.2107 34.5304 14 34 14ZM24.166 34.8C24.3102 35.1304 24.5411 35.4158 24.8341 35.6257C25.1272 35.8357 25.4716 35.9626 25.8309 35.9929C26.1901 36.0232 26.5509 35.9559 26.875 35.798C27.1991 35.64 27.4745 35.3975 27.6721 35.0959C27.8696 34.7943 27.982 34.4449 27.9972 34.0846C28.0125 33.7244 27.9301 33.3668 27.7588 33.0496C27.5874 32.7323 27.3335 32.4673 27.0239 32.2826C26.7143 32.0978 26.3605 32.0002 26 32H13C12.2044 32 11.4413 31.6839 10.8787 31.1213C10.3161 30.5587 10 29.7957 10 29C10 28.2044 10.3161 27.4413 10.8787 26.8787C11.4413 26.3161 12.2044 26 13 26H26C27.4423 26 28.8578 26.3899 30.0967 27.1285C31.3356 27.867 32.3517 28.9268 33.0376 30.1956C33.7235 31.4644 34.0536 32.895 33.9931 34.3361C33.9325 35.7771 33.4834 37.175 32.6934 38.3817C31.9035 39.5885 30.8019 40.5592 29.5054 41.1912C28.2089 41.8231 26.7657 42.0929 25.3285 41.9718C23.8912 41.8507 22.5135 41.3433 21.341 40.5033C20.1685 39.6633 19.2449 38.5219 18.668 37.2C18.5019 36.8377 18.4097 36.4459 18.3967 36.0475C18.3837 35.6492 18.4502 35.2522 18.5924 34.8799C18.7345 34.5075 18.9495 34.1672 19.2246 33.8788C19.4998 33.5905 19.8296 33.3598 20.1949 33.2004C20.5602 33.0409 20.9536 32.9558 21.3521 32.9501C21.7506 32.9444 22.1463 33.0182 22.516 33.1671C22.8857 33.316 23.2221 33.5371 23.5054 33.8175C23.7886 34.0979 24.0132 34.4319 24.166 34.8Z" fill="#3B4262"/>
</svg>
