<svg width="48" height="48" viewBox="0 0 48 48" fill="none" xmlns="http://www.w3.org/2000/svg">
<path d="M0.051728 40.1691C-0.340657 38.2268 1.55332 33.4329 3.90115 31.9144C4.86153 31.2933 5.57817 31.8785 6.51875 31.1861C8.64092 29.6239 7.81163 25.5791 9.44431 22.9315C10.7116 20.8763 12.0529 20.899 13.2937 18.8041C14.2728 17.1513 14.4511 15.7768 15.2954 13.9485C17.9235 8.25741 19.9144 4.96568 23.4562 1.32373C24.7154 0.0289456 25.9227 -0.856714 27.3056 1.32373C28.6885 3.50417 30.2295 3.99236 31.3086 5.69383C31.7817 6.43977 32.1661 7.4188 32.565 8.46693L34.3885 12.4918C37.1546 16.8532 38.2119 17.5608 39.9317 21.7175C41.2397 24.879 40.9893 27.5946 42.5493 30.4577C43.3824 31.9867 43.8685 32.9585 45.0129 33.8567C45.7451 34.4313 46.3702 34.0338 47.0146 34.8278C48.0951 36.1591 48.0652 38.0163 47.9385 40.1691C47.8436 41.7823 47.8433 43.0957 47.0146 44.0536C46.5083 44.6389 46.0635 44.438 45.4749 44.782C44.4662 45.3713 44.0383 46.2201 43.0112 46.7242C40.1607 48.1235 38.391 43.8367 35.4664 44.782C32.7993 45.644 32.274 47.7826 28.5 47.9166C26.9745 47.9707 24.0193 48.0736 22.5 47.9166C20.6444 47.7249 18.3436 46.6181 15.6034 46.4814C13.7992 46.3915 12.7501 47.3122 10.9841 46.7242C9.71675 46.3023 9.13881 45.4014 7.90454 44.782C5.40823 43.5292 3.90115 44.2964 1.28354 43.0825C0.45155 42.6966 0.314946 41.472 0.051728 40.1691Z" fill="#3B4262"/>
</svg>
